<?xml version="1.0" encoding="UTF-8"?>
<svg width="22.323mm" height="22.323mm" version="1.1" viewBox="0 0 22.323 22.323" xmlns="http://www.w3.org/2000/svg"
    xmlns:cc="http://creativecommons.org/ns#" xmlns:dc="http://purl.org/dc/elements/1.1/"
    xmlns:rdf="http://www.w3.org/1999/02/22-rdf-syntax-ns#">
    <metadata>
        <rdf:RDF>
            <cc:Work rdf:about="">
                <dc:format>image/svg+xml</dc:format>
                <dc:type rdf:resource="http://purl.org/dc/dcmitype/StillImage" />
                <dc:title />
            </cc:Work>
        </rdf:RDF>
    </metadata>
    <g transform="translate(-112.64 -43.326)">
        <g transform="translate(2.5219)" stroke="#000">
            <g fill="white" stroke-linecap="round">
                <path d="m121.03 57.256-1.4042 7.8927h-6.4857l1.1297-6.35" stroke-linejoin="round" />
            </g>
            <g fill="none">
                <path d="m120.78 58.799h-6.4857" />
                <path d="m120.38 60.916h-6.4857" stroke-linecap="round" stroke-linejoin="round" />
                <path d="m120 63.032h-6.4857" stroke-linecap="round" stroke-linejoin="round" />
            </g>
            <path d="m121.03 57.256-0.27447 1.5427h-6.4857l1.667-9.3702" fill="#fdca2b" stroke-linecap="round"
                stroke-linejoin="round" />

            <path transform="rotate(10.088)"
                d="m124.29 32.604a6.7942 6.7942 0 0 1 0.23202-8.7683 6.7942 6.7942 0 0 1 8.6843-1.2326 6.7942 6.7942 0 0 1 2.6627 8.3574 6.7942 6.7942 0 0 1-7.7967 4.0184"
                fill="#fdca2b" stroke-linecap="round" stroke-linejoin="round" />
            <g fill="none" stroke-linecap="round">
                <path d="m125.2 48.799 1.8331 1.8209-1.8338 1.8338" stroke-linejoin="round" />
                <path d="m120.05 48.799-1.8331 1.8209 1.8338 1.8338" stroke-linejoin="round" />
                <path d="m123.37 48.743-1.4982 3.7527" />
            </g>

        </g>
    </g>
</svg>